# xmcd CD database file
#
# Track frame offsets:
#	150
#	16717
#	29132
#	42071
#	65702
#	85717
#	97263
#	107992
#	127012
#	143899
#	157727
#	171006
#	192137
#	202326
#	220078
#	233297
#	247514
#	263887
#
# Disc length: 3743 seconds
#
# Revision: 0
# Processed by: cddbd v1.5.1PL2 Copyright (c) Steve Scherf et al.
# Submitted via: CdAid (MTCDDB.DLL V2003.12.21)
#
DISCID=f20e9d12
DTITLE=Various Artist - The Only Redneck Album You Will Ever Need
DYEAR=2005
DGENRE=Country
TTITLE0=T. Graham Brown and George Jones - Bag of Bones
TTITLE1=Eddy Raven - Bayou Boys
TTITLE2=Mel McDaniel - Big Ole Brew
TTITLE3=The Band - One Too Many Mornings
TTITLE4=Edgar Winter - Hoochie Coo
TTITLE5=Mickey Gilley - Honky Tonk Wine
TTITLE6=Eddie Rabbit - Two Dollars In the Jukebox
TTITLE7=Tracy Nelson - What Good Can Drinkin' Do
TTITLE8=Joey Miskulin - Beer Barrel Polka
TTITLE9=Highway 101 - Whiskey, If You Were a Woman
TTITLE10=Trailer Trash Band - A Real Live Doll
TTITLE11=Taj Mahal - Honmky Tonk Women
TTITLE12=Mel McDaniel - Louisiana Saturday Night
TTITLE13=T. Graham Brown and Delbert McClinton - Memphis Women and Fried Chicken
TTITLE14=Mickey Gilley - Don't the Girls All Get Prettier at Closing Time
TTITLE15=Jo-El Sonnier - Jambalaya
TTITLE16=Country Dance Kings - Redneck Woman
TTITLE17=Country Dance Kings - Friends in Low Places
EXTD=ID3G:   2 YEAR: 2005
EXTT0=
EXTT1=
EXTT2=
EXTT3=
EXTT4=
EXTT5=
EXTT6=
EXTT7=
EXTT8=
EXTT9=
EXTT10=
EXTT11=
EXTT12=
EXTT13=
EXTT14=
EXTT15=
EXTT16=
EXTT17=
PLAYORDER=
